<?xml version="1.0" standalone="no"?>
<!DOCTYPE svg PUBLIC "-//W3C//DTD SVG 20010904//EN"
 "http://www.w3.org/TR/2001/REC-SVG-20010904/DTD/svg10.dtd">
<svg version="1.0" xmlns="http://www.w3.org/2000/svg"
 width="260.000000pt" height="260.000000pt" viewBox="0 0 260.000000 260.000000"
 preserveAspectRatio="xMidYMid meet">
<metadata>
Created by potrace 1.11, written by Peter Selinger 2001-2013
</metadata>
<g transform="translate(0.000000,260.000000) scale(0.100000,-0.100000)"
fill="#000000" stroke="none">
<path d="M245 2579 c-96 -33 -156 -86 -208 -184 l-32 -60 -3 -497 -3 -498 631
0 630 0 0 630 0 630 -477 0 c-455 -1 -481 -2 -538 -21z m475 -384 l0 -135 135
0 135 0 0 -90 0 -90 -135 0 -135 0 0 -135 0 -135 -90 0 -90 0 0 135 0 135
-135 0 -135 0 0 90 0 90 135 0 135 0 0 135 0 135 90 0 90 0 0 -135z"/>
<path d="M1340 1970 l0 -630 630 0 630 0 0 468 c0 382 -3 478 -15 525 -33 126
-126 219 -252 252 -47 12 -143 15 -525 15 l-468 0 0 -630z m990 0 l0 -90 -360
0 -360 0 0 90 0 90 360 0 360 0 0 -90z"/>
<path d="M2 768 l3 -493 32 -65 c48 -100 114 -158 216 -193 42 -14 112 -16
528 -17 l479 0 0 630 0 630 -630 0 -631 0 3 -492z m536 80 l92 -92 91 92 c50
51 95 92 98 92 4 0 35 -27 69 -59 l61 -59 -97 -96 -96 -96 96 -96 96 -95 -32
-31 c-17 -18 -45 -46 -62 -63 l-31 -32 -97 95 -96 94 -97 -95 -96 -95 -59 60
c-32 33 -58 64 -58 67 0 4 41 49 92 99 l91 93 -91 91 c-51 50 -92 94 -92 98 0
10 110 120 119 120 4 0 48 -41 99 -92z"/>
<path d="M1340 630 l0 -631 493 3 c466 3 495 4 540 23 101 42 180 130 211 233
13 45 15 127 16 528 l0 474 -630 0 -630 0 0 -630z m990 180 l0 -90 -360 0
-360 0 0 90 0 90 360 0 360 0 0 -90z m0 -360 l0 -90 -360 0 -360 0 0 90 0 90
360 0 360 0 0 -90z"/>
</g>
</svg>
